<?xml version="1.0" encoding="UTF-8"?>
<svg version="1.1" xmlns="http://www.w3.org/2000/svg" width="512" height="512">
<path d="M0,0 L512,0 L512,512 L0,512 Z " fill="#FDFDFD" transform="translate(0,0)"/>
<path d="M0,0 L149,0 L149,1 L148,1 L148,2 L146,2 L146,3 L145,3 L145,4 L143,4 L143,5 L142,5 L142,6 L141,6 L141,7 L139,7 L139,8 L138,8 L138,9 L137,9 L137,10 L135,10 L135,11 L134,11 L134,12 L132,12 L132,13 L131,13 L131,14 L129,14 L129,15 L128,15 L128,16 L127,16 L127,17 L125,17 L125,18 L124,18 L124,19 L122,19 L122,20 L121,20 L121,21 L120,21 L120,22 L118,22 L118,23 L117,23 L117,24 L115,24 L115,25 L114,25 L114,26 L112,26 L112,27 L111,27 L111,28 L110,28 L110,29 L108,29 L108,30 L107,30 L107,31 L105,31 L105,32 L104,32 L104,33 L103,33 L103,34 L101,34 L101,35 L100,35 L100,36 L98,36 L98,37 L97,37 L97,38 L96,38 L96,39 L94,39 L94,40 L93,40 L93,41 L91,41 L91,42 L90,42 L90,43 L89,43 L89,44 L87,44 L87,45 L86,45 L86,46 L84,46 L84,47 L83,47 L83,48 L82,48 L82,49 L80,49 L80,50 L79,50 L79,51 L77,51 L77,52 L76,52 L76,53 L75,53 L75,54 L73,54 L73,55 L72,55 L72,56 L70,56 L70,57 L69,57 L69,58 L68,58 L68,59 L66,59 L66,60 L65,60 L65,61 L63,61 L63,62 L62,62 L62,63 L60,63 L60,64 L59,64 L59,65 L58,65 L58,66 L56,66 L56,67 L55,67 L55,68 L54,68 L54,69 L52,69 L52,70 L51,70 L51,71 L49,71 L49,72 L48,72 L48,73 L47,73 L47,74 L45,74 L45,75 L44,75 L44,76 L43,76 L43,77 L41,77 L41,78 L40,78 L40,79 L39,79 L39,82 L38,82 L38,87 L37,87 L37,92 L36,92 L36,96 L35,96 L35,99 L34,99 L34,103 L33,103 L33,106 L32,106 L32,109 L31,109 L31,112 L30,112 L30,115 L29,115 L29,117 L28,117 L28,121 L27,121 L27,123 L26,123 L26,126 L25,126 L25,129 L24,129 L24,131 L23,131 L23,134 L22,134 L22,136 L21,136 L21,139 L20,139 L20,141 L19,141 L19,143 L18,143 L18,146 L17,146 L17,148 L16,148 L16,152 L15,152 L15,154 L16,154 L16,153 L17,153 L17,152 L18,152 L18,151 L19,151 L19,150 L20,150 L20,149 L21,149 L21,148 L22,148 L22,147 L23,147 L23,146 L24,146 L24,145 L25,145 L25,144 L26,144 L26,143 L27,143 L27,142 L28,142 L28,141 L29,141 L29,140 L30,140 L30,139 L31,139 L31,138 L32,138 L32,137 L33,137 L33,136 L34,136 L34,135 L35,135 L35,134 L36,134 L36,133 L37,133 L37,132 L38,132 L38,130 L39,130 L39,129 L40,129 L40,128 L41,128 L41,127 L42,127 L42,126 L43,126 L43,125 L44,125 L44,124 L45,124 L45,123 L46,123 L46,122 L47,122 L47,121 L48,121 L48,120 L49,120 L49,119 L50,119 L50,118 L51,118 L51,117 L52,117 L52,115 L53,115 L53,114 L54,114 L54,113 L55,113 L55,112 L56,112 L56,111 L57,111 L57,110 L58,110 L58,109 L59,109 L59,108 L60,108 L60,107 L61,107 L61,106 L62,106 L62,105 L63,105 L63,104 L64,104 L64,103 L65,103 L65,102 L66,102 L66,100 L65,100 L65,93 L66,93 L66,92 L67,92 L67,90 L69,90 L69,89 L70,89 L70,88 L78,88 L78,89 L80,89 L80,90 L82,90 L82,89 L83,89 L83,88 L84,88 L84,87 L85,87 L85,86 L86,86 L86,85 L88,85 L88,86 L87,86 L87,87 L86,87 L86,88 L85,88 L85,89 L84,89 L84,90 L83,90 L83,91 L82,91 L82,93 L83,93 L83,98 L82,98 L82,100 L81,100 L81,102 L80,102 L80,103 L78,103 L78,104 L76,104 L76,105 L70,105 L70,104 L67,104 L67,105 L66,105 L66,106 L65,106 L65,107 L64,107 L64,108 L63,108 L63,109 L62,109 L62,110 L61,110 L61,111 L60,111 L60,112 L59,112 L59,113 L58,113 L58,114 L57,114 L57,115 L56,115 L56,116 L55,116 L55,118 L54,118 L54,119 L53,119 L53,120 L52,120 L52,121 L51,121 L51,122 L50,122 L50,123 L49,123 L49,124 L48,124 L48,125 L47,125 L47,126 L46,126 L46,127 L45,127 L45,128 L44,128 L44,129 L43,129 L43,130 L42,130 L42,131 L41,131 L41,132 L40,132 L40,133 L39,133 L39,135 L38,135 L38,136 L37,136 L37,137 L36,137 L36,138 L35,138 L35,139 L34,139 L34,140 L33,140 L33,141 L32,141 L32,142 L31,142 L31,143 L30,143 L30,144 L29,144 L29,145 L28,145 L28,146 L27,146 L27,148 L26,148 L26,149 L25,149 L25,150 L24,150 L24,151 L23,151 L23,152 L22,152 L22,153 L21,153 L21,154 L20,154 L20,155 L19,155 L19,157 L18,157 L18,158 L20,158 L20,157 L21,157 L21,156 L22,156 L22,155 L25,155 L25,154 L27,154 L27,153 L29,153 L29,152 L31,152 L31,151 L33,151 L33,150 L35,150 L35,149 L38,149 L38,148 L40,148 L40,147 L42,147 L42,146 L44,146 L44,145 L47,145 L47,144 L49,144 L49,143 L51,143 L51,142 L53,142 L53,141 L55,141 L55,140 L57,140 L57,139 L59,139 L59,138 L62,138 L62,137 L64,137 L64,136 L66,136 L66,135 L68,135 L68,134 L71,134 L71,133 L73,133 L73,132 L76,132 L76,131 L78,131 L78,130 L81,130 L81,129 L86,129 L86,128 L90,128 L90,127 L94,127 L94,126 L95,126 L95,125 L96,125 L96,124 L97,124 L97,123 L98,123 L98,121 L99,121 L99,120 L100,120 L100,119 L101,119 L101,117 L102,117 L102,116 L103,116 L103,115 L104,115 L104,113 L105,113 L105,112 L106,112 L106,110 L107,110 L107,109 L108,109 L108,108 L109,108 L109,106 L110,106 L110,105 L111,105 L111,104 L112,104 L112,102 L113,102 L113,101 L114,101 L114,100 L115,100 L115,98 L116,98 L116,97 L117,97 L117,95 L118,95 L118,94 L119,94 L119,93 L120,93 L120,91 L121,91 L121,90 L122,90 L122,89 L123,89 L123,88 L124,88 L124,86 L125,86 L125,85 L126,85 L126,84 L127,84 L127,82 L128,82 L128,81 L129,81 L129,79 L130,79 L130,78 L131,78 L131,77 L132,77 L132,76 L133,76 L133,74 L134,74 L134,73 L135,73 L135,72 L136,72 L136,70 L137,70 L137,69 L138,69 L138,68 L139,68 L139,66 L140,66 L140,65 L141,65 L141,64 L142,64 L142,62 L143,62 L143,61 L144,61 L144,60 L145,60 L145,58 L146,58 L146,57 L147,57 L147,56 L148,56 L148,54 L149,54 L149,53 L150,53 L150,52 L151,52 L151,50 L152,50 L152,49 L153,49 L153,48 L154,48 L154,46 L155,46 L155,45 L156,45 L156,44 L157,44 L157,42 L158,42 L158,41 L159,41 L159,40 L160,40 L160,38 L161,38 L161,37 L162,37 L162,36 L163,36 L163,34 L164,34 L164,33 L165,33 L165,32 L166,32 L166,31 L167,31 L167,29 L168,29 L168,28 L169,28 L169,27 L170,27 L170,25 L171,25 L171,24 L172,24 L172,23 L173,23 L173,21 L174,21 L174,20 L175,20 L175,19 L176,19 L176,17 L177,17 L177,16 L178,16 L178,15 L179,15 L179,14 L180,14 L180,12 L181,12 L181,11 L182,11 L182,10 L183,10 L183,8 L184,8 L184,7 L185,7 L185,6 L186,6 L186,4 L188,4 L188,150 L187,150 L187,157 L186,157 L186,160 L185,160 L185,163 L184,163 L184,166 L183,166 L183,168 L182,168 L182,170 L181,170 L181,172 L180,172 L180,174 L179,174 L179,175 L178,175 L178,177 L177,177 L177,178 L176,178 L176,179 L175,179 L175,180 L174,180 L174,181 L173,181 L173,182 L172,182 L172,183 L171,183 L171,184 L170,184 L170,185 L169,185 L169,186 L168,186 L168,187 L167,187 L167,188 L166,188 L166,189 L164,189 L164,190 L162,190 L162,191 L161,191 L161,192 L159,192 L159,193 L157,193 L157,194 L154,194 L154,195 L151,195 L151,196 L147,196 L147,197 L143,197 L143,198 L12,198 L12,199 L4,199 L4,200 L0,200 L0,201 L-3,201 L-3,202 L-6,202 L-6,203 L-8,203 L-8,204 L-10,204 L-10,205 L-12,205 L-12,206 L-14,206 L-14,207 L-16,207 L-16,208 L-17,208 L-17,209 L-19,209 L-19,210 L-20,210 L-20,211 L-21,211 L-21,212 L-22,212 L-22,213 L-23,213 L-23,214 L-24,214 L-24,216 L-25,216 L-25,217 L-26,217 L-26,219 L-27,219 L-27,220 L-28,220 L-28,222 L-29,222 L-29,223 L-30,223 L-30,224 L-31,224 L-31,226 L-32,226 L-32,228 L-33,228 L-33,229 L-34,229 L-34,230 L-35,230 L-35,232 L-36,232 L-36,233 L-37,233 L-37,234 L-38,234 L-38,236 L-39,236 L-39,237 L-40,237 L-40,238 L-41,238 L-41,239 L-42,239 L-42,241 L-43,241 L-43,242 L-44,242 L-44,47 L-43,47 L-43,42 L-42,42 L-42,37 L-41,37 L-41,34 L-40,34 L-40,32 L-39,32 L-39,30 L-38,30 L-38,28 L-37,28 L-37,26 L-36,26 L-36,25 L-35,25 L-35,23 L-34,23 L-34,22 L-33,22 L-33,20 L-32,20 L-32,19 L-31,19 L-31,18 L-30,18 L-30,17 L-29,17 L-29,16 L-28,16 L-28,15 L-27,15 L-27,14 L-26,14 L-26,13 L-25,13 L-25,12 L-23,12 L-23,11 L-22,11 L-22,10 L-21,10 L-21,9 L-19,9 L-19,8 L-18,8 L-18,7 L-16,7 L-16,6 L-14,6 L-14,5 L-12,5 L-12,4 L-10,4 L-10,3 L-7,3 L-7,2 L-4,2 L-4,1 L0,1 Z " fill="#2B5FD3" transform="translate(186,45)"/>
<path d="M0,0 L42,0 L42,1 L48,1 L48,2 L52,2 L52,3 L55,3 L55,4 L58,4 L58,5 L61,5 L61,6 L63,6 L63,7 L64,7 L64,8 L66,8 L66,9 L67,9 L67,10 L68,10 L68,11 L69,11 L69,12 L70,12 L70,13 L71,13 L71,14 L72,14 L72,15 L73,15 L73,17 L74,17 L74,18 L75,18 L75,20 L76,20 L76,23 L77,23 L77,26 L78,26 L78,43 L77,43 L77,46 L76,46 L76,49 L75,49 L75,51 L74,51 L74,53 L73,53 L73,54 L72,54 L72,56 L71,56 L71,57 L70,57 L70,58 L69,58 L69,59 L68,59 L68,60 L67,60 L67,61 L65,61 L65,62 L64,62 L64,63 L62,63 L62,64 L60,64 L60,65 L58,65 L58,66 L56,66 L56,67 L51,67 L51,68 L48,68 L48,69 L20,69 L20,107 L0,107 Z " fill="#2F61D2" transform="translate(36,327)"/>
<path d="M0,0 L17,0 L17,1 L20,1 L20,2 L24,2 L24,3 L26,3 L26,4 L28,4 L28,5 L29,5 L29,6 L31,6 L31,7 L32,7 L32,8 L33,8 L33,9 L34,9 L34,11 L35,11 L35,12 L36,12 L36,14 L37,14 L37,16 L38,16 L38,19 L39,19 L39,23 L40,23 L40,75 L26,75 L26,74 L25,74 L25,72 L24,72 L24,69 L23,69 L23,66 L22,66 L22,67 L21,67 L21,68 L20,68 L20,69 L19,69 L19,70 L18,70 L18,71 L16,71 L16,72 L15,72 L15,73 L13,73 L13,74 L11,74 L11,75 L7,75 L7,76 L2,76 L2,77 L-4,77 L-4,76 L-10,76 L-10,75 L-13,75 L-13,74 L-15,74 L-15,73 L-17,73 L-17,72 L-18,72 L-18,71 L-19,71 L-19,70 L-20,70 L-20,69 L-21,69 L-21,68 L-22,68 L-22,66 L-23,66 L-23,64 L-24,64 L-24,61 L-25,61 L-25,49 L-24,49 L-24,47 L-23,47 L-23,45 L-22,45 L-22,44 L-21,44 L-21,43 L-20,43 L-20,42 L-19,42 L-19,41 L-18,41 L-18,40 L-17,40 L-17,39 L-15,39 L-15,38 L-13,38 L-13,37 L-10,37 L-10,36 L-7,36 L-7,35 L-3,35 L-3,34 L4,34 L4,33 L22,33 L22,26 L21,26 L21,21 L20,21 L20,20 L19,20 L19,18 L18,18 L18,17 L17,17 L17,16 L16,16 L16,15 L13,15 L13,14 L-1,14 L-1,15 L-3,15 L-3,16 L-5,16 L-5,17 L-6,17 L-6,18 L-8,18 L-8,19 L-9,19 L-9,20 L-10,20 L-10,21 L-15,21 L-15,20 L-18,20 L-18,19 L-19,19 L-19,18 L-20,18 L-20,16 L-21,16 L-21,15 L-22,15 L-22,12 L-21,12 L-21,11 L-20,11 L-20,10 L-19,10 L-19,9 L-18,9 L-18,8 L-16,8 L-16,7 L-15,7 L-15,6 L-13,6 L-13,5 L-12,5 L-12,4 L-9,4 L-9,3 L-7,3 L-7,2 L-4,2 L-4,1 L0,1 Z " fill="#3061D1" transform="translate(188,359)"/>
<path d="M0,0 L14,0 L14,1 L18,1 L18,2 L20,2 L20,3 L23,3 L23,4 L24,4 L24,5 L25,5 L25,6 L26,6 L26,7 L27,7 L27,8 L28,8 L28,9 L29,9 L29,10 L30,10 L30,12 L31,12 L31,14 L32,14 L32,16 L33,16 L33,20 L34,20 L34,75 L15,75 L15,23 L14,23 L14,21 L13,21 L13,19 L12,19 L12,18 L11,18 L11,17 L10,17 L10,16 L8,16 L8,15 L5,15 L5,14 L-1,14 L-1,15 L-5,15 L-5,16 L-7,16 L-7,17 L-9,17 L-9,18 L-11,18 L-11,19 L-12,19 L-12,20 L-13,20 L-13,22 L-14,22 L-14,23 L-15,23 L-15,75 L-34,75 L-34,1 L-19,1 L-19,2 L-18,2 L-18,3 L-17,3 L-17,4 L-16,4 L-16,11 L-15,11 L-15,10 L-14,10 L-14,9 L-13,9 L-13,8 L-12,8 L-12,7 L-11,7 L-11,6 L-10,6 L-10,5 L-9,5 L-9,4 L-7,4 L-7,3 L-5,3 L-5,2 L-3,2 L-3,1 L0,1 Z " fill="#3062D3" transform="translate(319,359)"/>
<path d="M0,0 L19,0 L19,1 L20,1 L20,2 L21,2 L21,3 L22,3 L22,5 L23,5 L23,8 L24,8 L24,10 L25,10 L25,13 L26,13 L26,15 L27,15 L27,17 L28,17 L28,20 L29,20 L29,22 L30,22 L30,25 L31,25 L31,27 L32,27 L32,30 L33,30 L33,32 L34,32 L34,34 L35,34 L35,37 L36,37 L36,39 L37,39 L37,42 L38,42 L38,44 L39,44 L39,46 L40,46 L40,49 L42,49 L42,46 L43,46 L43,43 L44,43 L44,41 L45,41 L45,38 L46,38 L46,36 L47,36 L47,33 L48,33 L48,31 L49,31 L49,28 L50,28 L50,26 L51,26 L51,23 L52,23 L52,20 L53,20 L53,18 L54,18 L54,15 L55,15 L55,13 L56,13 L56,10 L57,10 L57,8 L58,8 L58,5 L59,5 L59,3 L60,3 L60,1 L61,1 L61,0 L79,0 L79,2 L78,2 L78,5 L77,5 L77,7 L76,7 L76,10 L75,10 L75,12 L74,12 L74,14 L73,14 L73,17 L72,17 L72,19 L71,19 L71,21 L70,21 L70,23 L69,23 L69,26 L68,26 L68,28 L67,28 L67,30 L66,30 L66,33 L65,33 L65,35 L64,35 L64,37 L63,37 L63,40 L62,40 L62,42 L61,42 L61,45 L60,45 L60,47 L59,47 L59,49 L58,49 L58,51 L57,51 L57,54 L56,54 L56,56 L55,56 L55,58 L54,58 L54,61 L53,61 L53,63 L52,63 L52,65 L51,65 L51,67 L50,67 L50,69 L49,69 L49,72 L48,72 L48,74 L47,74 L47,76 L46,76 L46,79 L45,79 L45,81 L44,81 L44,83 L43,83 L43,85 L42,85 L42,88 L41,88 L41,90 L40,90 L40,92 L39,92 L39,95 L38,95 L38,97 L37,97 L37,99 L36,99 L36,103 L16,103 L16,101 L17,101 L17,99 L18,99 L18,97 L19,97 L19,95 L20,95 L20,93 L21,93 L21,90 L22,90 L22,88 L23,88 L23,86 L24,86 L24,83 L25,83 L25,81 L26,81 L26,79 L27,79 L27,77 L28,77 L28,75 L29,75 L29,73 L30,73 L30,72 L31,72 L31,69 L30,69 L30,67 L29,67 L29,64 L28,64 L28,62 L27,62 L27,60 L26,60 L26,57 L25,57 L25,55 L24,55 L24,53 L23,53 L23,50 L22,50 L22,48 L21,48 L21,46 L20,46 L20,44 L19,44 L19,41 L18,41 L18,39 L17,39 L17,37 L16,37 L16,35 L15,35 L15,32 L14,32 L14,30 L13,30 L13,28 L12,28 L12,25 L11,25 L11,23 L10,23 L10,21 L9,21 L9,19 L8,19 L8,16 L7,16 L7,14 L6,14 L6,12 L5,12 L5,10 L4,10 L4,7 L3,7 L3,5 L2,5 L2,3 L1,3 L1,2 L0,2 Z " fill="#2F61D1" transform="translate(402,360)"/>
<path d="M0,0 L19,0 L19,108 L0,108 Z " fill="#3163D1" transform="translate(128,326)"/>
<path d="M0,0 L19,0 L19,107 L0,107 Z " fill="#3163D3" transform="translate(372,327)"/>
<path d="M0,0 L19,0 L19,74 L0,74 Z " fill="#3264D1" transform="translate(247,360)"/>
<path d="M0,0 L19,0 L19,1 L25,1 L25,2 L28,2 L28,3 L30,3 L30,4 L32,4 L32,5 L33,5 L33,6 L34,6 L34,7 L35,7 L35,8 L36,8 L36,10 L37,10 L37,13 L38,13 L38,24 L37,24 L37,27 L36,27 L36,29 L35,29 L35,31 L34,31 L34,32 L33,32 L33,33 L32,33 L32,34 L31,34 L31,35 L29,35 L29,36 L26,36 L26,37 L20,37 L20,38 L0,38 Z " fill="#F9FAFC" transform="translate(56,343)"/>
<path d="M0,0 L2,0 L2,1 L1,1 L1,2 L0,2 L0,3 L-1,3 L-1,4 L-2,4 L-2,5 L-3,5 L-3,6 L-4,6 L-4,8 L-3,8 L-3,13 L-4,13 L-4,15 L-5,15 L-5,17 L-6,17 L-6,18 L-8,18 L-8,19 L-10,19 L-10,20 L-16,20 L-16,19 L-19,19 L-19,20 L-20,20 L-20,21 L-21,21 L-21,22 L-22,22 L-22,23 L-23,23 L-23,24 L-24,24 L-24,25 L-25,25 L-25,26 L-26,26 L-26,27 L-27,27 L-27,28 L-28,28 L-28,29 L-29,29 L-29,30 L-30,30 L-30,31 L-31,31 L-31,33 L-32,33 L-32,34 L-33,34 L-33,35 L-34,35 L-34,36 L-35,36 L-35,37 L-36,37 L-36,38 L-37,38 L-37,39 L-38,39 L-38,40 L-39,40 L-39,41 L-40,41 L-40,42 L-41,42 L-41,43 L-42,43 L-42,44 L-43,44 L-43,45 L-44,45 L-44,46 L-45,46 L-45,47 L-46,47 L-46,48 L-47,48 L-47,50 L-48,50 L-48,51 L-49,51 L-49,52 L-50,52 L-50,53 L-51,53 L-51,54 L-52,54 L-52,55 L-53,55 L-53,56 L-54,56 L-54,57 L-55,57 L-55,58 L-56,58 L-56,59 L-57,59 L-57,60 L-58,60 L-58,61 L-59,61 L-59,63 L-60,63 L-60,64 L-61,64 L-61,65 L-62,65 L-62,66 L-63,66 L-63,67 L-64,67 L-64,68 L-65,68 L-65,69 L-66,69 L-66,70 L-67,70 L-67,72 L-68,72 L-68,73 L-69,73 L-69,70 L-70,70 L-70,68 L-69,68 L-69,67 L-68,67 L-68,66 L-67,66 L-67,65 L-66,65 L-66,64 L-65,64 L-65,63 L-64,63 L-64,62 L-63,62 L-63,61 L-62,61 L-62,60 L-61,60 L-61,59 L-60,59 L-60,58 L-59,58 L-59,57 L-58,57 L-58,56 L-57,56 L-57,55 L-56,55 L-56,54 L-55,54 L-55,53 L-54,53 L-54,52 L-53,52 L-53,51 L-52,51 L-52,50 L-51,50 L-51,49 L-50,49 L-50,48 L-49,48 L-49,47 L-48,47 L-48,45 L-47,45 L-47,44 L-46,44 L-46,43 L-45,43 L-45,42 L-44,42 L-44,41 L-43,41 L-43,40 L-42,40 L-42,39 L-41,39 L-41,38 L-40,38 L-40,37 L-39,37 L-39,36 L-38,36 L-38,35 L-37,35 L-37,34 L-36,34 L-36,33 L-35,33 L-35,32 L-34,32 L-34,30 L-33,30 L-33,29 L-32,29 L-32,28 L-31,28 L-31,27 L-30,27 L-30,26 L-29,26 L-29,25 L-28,25 L-28,24 L-27,24 L-27,23 L-26,23 L-26,22 L-25,22 L-25,21 L-24,21 L-24,20 L-23,20 L-23,19 L-22,19 L-22,18 L-21,18 L-21,17 L-20,17 L-20,15 L-21,15 L-21,8 L-20,8 L-20,7 L-19,7 L-19,5 L-17,5 L-17,4 L-16,4 L-16,3 L-8,3 L-8,4 L-6,4 L-6,5 L-4,5 L-4,4 L-3,4 L-3,3 L-2,3 L-2,2 L-1,2 L-1,1 L0,1 Z " fill="#3565D1" transform="translate(272,130)"/>
<path d="M0,0 L15,0 L15,12 L14,12 L14,13 L13,13 L13,14 L12,14 L12,15 L11,15 L11,16 L10,16 L10,17 L8,17 L8,18 L5,18 L5,19 L3,19 L3,20 L-5,20 L-5,19 L-9,19 L-9,18 L-10,18 L-10,17 L-11,17 L-11,16 L-12,16 L-12,15 L-13,15 L-13,7 L-12,7 L-12,6 L-11,6 L-11,5 L-10,5 L-10,4 L-9,4 L-9,3 L-7,3 L-7,2 L-4,2 L-4,1 L0,1 Z " fill="#F6F9FB" transform="translate(194,403)"/>
<path d="M0,0 L10,0 L10,1 L12,1 L12,2 L13,2 L13,3 L14,3 L14,4 L15,4 L15,5 L16,5 L16,7 L17,7 L17,15 L16,15 L16,17 L15,17 L15,19 L14,19 L14,20 L13,20 L13,21 L11,21 L11,22 L9,22 L9,23 L3,23 L3,22 L-1,22 L-1,21 L-2,21 L-2,20 L-4,20 L-4,18 L-5,18 L-5,17 L-6,17 L-6,15 L-7,15 L-7,8 L-6,8 L-6,6 L-5,6 L-5,5 L-4,5 L-4,3 L-3,3 L-3,2 L-1,2 L-1,1 L0,1 Z " fill="#3265D3" transform="translate(251,326)"/>
<path d="M0,0 L1,0 L1,2 L2,2 L2,3 L1,3 L1,4 L0,4 L0,5 L-1,5 L-1,6 L-2,6 L-2,7 L-3,7 L-3,8 L-4,8 L-4,9 L-5,9 L-5,10 L-6,10 L-6,11 L-7,11 L-7,12 L-8,12 L-8,13 L-9,13 L-9,14 L-10,14 L-10,16 L-11,16 L-11,17 L-12,17 L-12,18 L-13,18 L-13,19 L-14,19 L-14,20 L-15,20 L-15,21 L-16,21 L-16,22 L-17,22 L-17,23 L-18,23 L-18,24 L-19,24 L-19,25 L-20,25 L-20,26 L-21,26 L-21,27 L-22,27 L-22,28 L-23,28 L-23,29 L-24,29 L-24,30 L-25,30 L-25,31 L-26,31 L-26,33 L-27,33 L-27,34 L-28,34 L-28,35 L-29,35 L-29,36 L-30,36 L-30,37 L-31,37 L-31,38 L-32,38 L-32,39 L-33,39 L-33,40 L-34,40 L-34,41 L-35,41 L-35,42 L-36,42 L-36,43 L-37,43 L-37,44 L-38,44 L-38,46 L-39,46 L-39,47 L-40,47 L-40,48 L-41,48 L-41,49 L-42,49 L-42,50 L-43,50 L-43,51 L-44,51 L-44,52 L-45,52 L-45,53 L-46,53 L-46,55 L-47,55 L-47,56 L-48,56 L-48,53 L-49,53 L-49,51 L-48,51 L-48,50 L-47,50 L-47,49 L-46,49 L-46,48 L-45,48 L-45,47 L-44,47 L-44,46 L-43,46 L-43,45 L-42,45 L-42,44 L-41,44 L-41,43 L-40,43 L-40,42 L-39,42 L-39,41 L-38,41 L-38,40 L-37,40 L-37,39 L-36,39 L-36,38 L-35,38 L-35,37 L-34,37 L-34,36 L-33,36 L-33,35 L-32,35 L-32,34 L-31,34 L-31,33 L-30,33 L-30,32 L-29,32 L-29,31 L-28,31 L-28,30 L-27,30 L-27,28 L-26,28 L-26,27 L-25,27 L-25,26 L-24,26 L-24,25 L-23,25 L-23,24 L-22,24 L-22,23 L-21,23 L-21,22 L-20,22 L-20,21 L-19,21 L-19,20 L-18,20 L-18,19 L-17,19 L-17,18 L-16,18 L-16,17 L-15,17 L-15,16 L-14,16 L-14,15 L-13,15 L-13,13 L-12,13 L-12,12 L-11,12 L-11,11 L-10,11 L-10,10 L-9,10 L-9,9 L-8,9 L-8,8 L-7,8 L-7,7 L-6,7 L-6,6 L-5,6 L-5,5 L-4,5 L-4,4 L-3,4 L-3,3 L-2,3 L-2,2 L-1,2 L-1,1 L0,1 Z " fill="#416BC4" transform="translate(251,147)"/>
<path d="M0,0 L2,0 L2,3 L1,3 L1,4 L0,4 L0,5 L-1,5 L-1,6 L-2,6 L-2,7 L-3,7 L-3,8 L-4,8 L-4,9 L-5,9 L-5,11 L-6,11 L-6,12 L-7,12 L-7,13 L-8,13 L-8,14 L-9,14 L-9,15 L-10,15 L-10,16 L-11,16 L-11,17 L-12,17 L-12,18 L-13,18 L-13,20 L-14,20 L-14,21 L-15,21 L-15,18 L-16,18 L-16,16 L-15,16 L-15,15 L-14,15 L-14,14 L-13,14 L-13,13 L-12,13 L-12,12 L-11,12 L-11,11 L-10,11 L-10,10 L-9,10 L-9,9 L-8,9 L-8,8 L-7,8 L-7,7 L-6,7 L-6,6 L-5,6 L-5,5 L-4,5 L-4,4 L-3,4 L-3,3 L-2,3 L-2,2 L-1,2 L-1,1 L0,1 Z " fill="#3661C0" transform="translate(218,182)"/>
<path d="M0,0 L2,0 L2,1 L1,1 L1,2 L0,2 L0,3 L-1,3 L-1,4 L-2,4 L-2,5 L-3,5 L-3,6 L-4,6 L-4,7 L-5,7 L-5,58 L-6,58 L-6,6 L-5,6 L-5,5 L-4,5 L-4,3 L-3,3 L-3,2 L-2,2 L-2,1 L0,1 Z " fill="#E3EFFD" transform="translate(310,376)"/>
<path d="M0,0 L1,0 L1,2 L2,2 L2,3 L1,3 L1,4 L0,4 L0,5 L-1,5 L-1,6 L-2,6 L-2,7 L-3,7 L-3,8 L-4,8 L-4,9 L-5,9 L-5,10 L-6,10 L-6,11 L-7,11 L-7,12 L-8,12 L-8,13 L-9,13 L-9,14 L-10,14 L-10,16 L-11,16 L-11,17 L-12,17 L-12,16 L-14,16 L-14,15 L-13,15 L-13,13 L-12,13 L-12,12 L-11,12 L-11,11 L-10,11 L-10,10 L-9,10 L-9,9 L-8,9 L-8,8 L-7,8 L-7,7 L-6,7 L-6,6 L-5,6 L-5,5 L-4,5 L-4,4 L-3,4 L-3,3 L-2,3 L-2,2 L-1,2 L-1,1 L0,1 Z " fill="#3E6BCC" transform="translate(251,147)"/>
<path d="M0,0 L3,0 L3,2 L2,2 L2,3 L1,3 L1,4 L0,4 L0,5 L-1,5 L-1,6 L-2,6 L-2,7 L-3,7 L-3,8 L-4,8 L-4,9 L-5,9 L-5,10 L-6,10 L-6,11 L-7,11 L-7,9 L-6,9 L-6,8 L-7,8 L-7,7 L-6,7 L-6,6 L-5,6 L-5,5 L-4,5 L-4,4 L-3,4 L-3,3 L-2,3 L-2,2 L-1,2 L-1,1 L0,1 Z " fill="#3966C6" transform="translate(236,163)"/>
<path d="M0,0 L2,0 L2,1 L1,1 L1,2 L0,2 L0,3 L-1,3 L-1,4 L-2,4 L-2,5 L-3,5 L-3,6 L-4,6 L-4,7 L-5,7 L-5,8 L-6,8 L-6,9 L-7,9 L-7,10 L-8,10 L-8,11 L-9,11 L-9,12 L-10,12 L-10,10 L-9,10 L-9,9 L-8,9 L-8,7 L-7,7 L-7,6 L-6,6 L-6,5 L-5,5 L-5,4 L-4,4 L-4,3 L-3,3 L-3,2 L-1,2 L-1,1 L0,1 Z " fill="#DFEBF8" transform="translate(170,252)"/>
<path d="M0,0 L2,0 L2,3 L1,3 L1,4 L0,4 L0,5 L-1,5 L-1,6 L-2,6 L-2,7 L-3,7 L-3,8 L-4,8 L-4,9 L-5,9 L-5,7 L-6,7 L-6,6 L-5,6 L-5,5 L-4,5 L-4,4 L-3,4 L-3,3 L-2,3 L-2,2 L-1,2 L-1,1 L0,1 Z " fill="#3461C3" transform="translate(218,182)"/>
<path d="M0,0 L10,0 L10,1 L1,1 L1,2 L0,2 L0,3 L-1,3 L-1,4 L-2,4 L-2,5 L-3,5 L-3,6 L-4,6 L-4,7 L-5,7 L-5,8 L-6,8 L-6,6 L-5,6 L-5,5 L-4,5 L-4,3 L-3,3 L-3,2 L-1,2 L-1,1 L0,1 Z " fill="#4471CF" transform="translate(251,326)"/>
<path d="M0,0 L2,0 L2,2 L1,2 L1,3 L0,3 L0,5 L-1,5 L-1,6 L-2,6 L-2,8 L-3,8 L-3,9 L-4,9 L-4,4 L-3,4 L-3,3 L-2,3 L-2,2 L-1,2 L-1,1 L0,1 Z " fill="#3C69CE" transform="translate(160,259)"/>
<path d="M0,0 L2,0 L2,1 L1,1 L1,2 L0,2 L0,3 L-1,3 L-1,4 L-2,4 L-2,5 L-3,5 L-3,6 L-4,6 L-4,7 L-5,7 L-5,9 L-6,9 L-6,12 L-7,12 L-7,8 L-6,8 L-6,5 L-5,5 L-5,4 L-4,4 L-4,3 L-2,3 L-2,2 L-1,2 L-1,1 L0,1 Z " fill="#E4EFFA" transform="translate(231,119)"/>
<path d="M0,0 L2,0 L2,1 L1,1 L1,2 L0,2 L0,3 L-1,3 L-1,4 L-2,4 L-2,5 L-3,5 L-3,6 L-4,6 L-4,7 L-5,7 L-5,11 L-6,11 L-6,6 L-5,6 L-5,5 L-4,5 L-4,3 L-3,3 L-3,2 L-2,2 L-2,1 L0,1 Z " fill="#DEEAF9" transform="translate(310,376)"/>
<path d="M0,0 L1,0 L1,2 L0,2 L0,3 L-1,3 L-1,4 L-2,4 L-2,5 L0,5 L0,6 L-3,6 L-3,7 L-4,7 L-4,8 L-5,8 L-5,9 L-7,9 L-7,8 L-6,8 L-6,6 L-5,6 L-5,5 L-4,5 L-4,4 L-3,4 L-3,3 L-2,3 L-2,2 L-1,2 L-1,1 L0,1 Z " fill="#D4E3F7" transform="translate(211,194)"/>
<path d="M0,0 L2,0 L2,4 L1,4 L1,5 L0,5 L0,6 L-1,6 L-1,4 L-2,4 L-2,5 L-3,5 L-3,6 L-5,6 L-5,5 L-4,5 L-4,4 L-3,4 L-3,3 L-2,3 L-2,2 L-1,2 L-1,1 L0,1 Z " fill="#3F68C0" transform="translate(211,189)"/>
<path d="M0,0 L3,0 L3,2 L2,2 L2,3 L1,3 L1,4 L0,4 L0,5 L-1,5 L-1,6 L-2,6 L-2,4 L-1,4 L-1,3 L-2,3 L-2,2 L-1,2 L-1,1 L0,1 Z " fill="#3460C0" transform="translate(231,168)"/>
<path d="M0,0 L1,0 L1,2 L2,2 L2,4 L1,4 L1,5 L0,5 L0,4 L-2,4 L-2,3 L-1,3 L-1,1 L0,1 Z " fill="#4B74CB" transform="translate(239,159)"/>
<path d="M0,0 L1,0 L1,4 L0,4 L0,5 L-1,5 L-1,3 L-2,3 L-2,2 L-1,2 L-1,1 L0,1 Z " fill="#3B69C4" transform="translate(221,179)"/>
</svg>
